<svg xmlns="http://www.w3.org/2000/svg" viewBox="0 0 512 256" width="512" height="256">
  <rect width="512" height="256" fill="white"/>
  <polygon points="256,10 276,22 270,44 242,44 236,22" fill="#1a1a1a"/>
  <polygon points="64,90  84,78  100,92 94,114 70,114 58,96"  fill="#1a1a1a"/>
  <polygon points="192,90 212,78 228,92 222,114 198,114 186,96" fill="#1a1a1a"/>
  <polygon points="320,90 340,78 356,92 350,114 326,114 314,96" fill="#1a1a1a"/>
  <polygon points="448,90 468,78 484,92 478,114 454,114 442,96" fill="#1a1a1a"/>
  <polygon points="128,165 148,153 164,167 158,189 134,189 122,171" fill="#1a1a1a"/>
  <polygon points="320,165 340,153 356,167 350,189 326,189 314,171" fill="#1a1a1a"/>
  <polygon points="0,165  20,153 36,167 30,189 6,189  -6,171"   fill="#1a1a1a"/>
  <polygon points="448,165 468,153 484,167 478,189 454,189 442,171" fill="#1a1a1a"/>
  <polygon points="256,220 276,208 292,222 286,244 226,244 220,222 236,208" fill="#1a1a1a"/>
  <line x1="0" y1="128" x2="512" y2="128" stroke="#cccccc" stroke-width="0.5" stroke-dasharray="4,4"/>
</svg>
