<svg xmlns="http://www.w3.org/2000/svg" viewBox="0 0 900 600" width="900" height="600">
  <rect width="900" height="600" fill="#2d8c3c"/>
  <rect x="0"   y="0" width="100" height="600" fill="#35994a"/>
  <rect x="200" y="0" width="100" height="600" fill="#35994a"/>
  <rect x="400" y="0" width="100" height="600" fill="#35994a"/>
  <rect x="600" y="0" width="100" height="600" fill="#35994a"/>
  <rect x="800" y="0" width="100" height="600" fill="#35994a"/>
  <rect x="3" y="3" width="894" height="594" fill="none" stroke="white" stroke-width="5"/>
  <line x1="450" y1="3" x2="450" y2="597" stroke="white" stroke-width="3"/>
  <circle cx="450" cy="300" r="75" fill="none" stroke="white" stroke-width="3"/>
  <circle cx="450" cy="300" r="4" fill="white"/>
  <rect x="3" y="110" width="140" height="380" fill="none" stroke="white" stroke-width="3"/>
  <rect x="757" y="110" width="140" height="380" fill="none" stroke="white" stroke-width="3"/>
  <rect x="3" y="175" width="50" height="250" fill="none" stroke="white" stroke-width="3"/>
  <rect x="847" y="175" width="50" height="250" fill="none" stroke="white" stroke-width="3"/>
  <circle cx="95" cy="300" r="3" fill="white"/>
  <circle cx="805" cy="300" r="3" fill="white"/>
  <path d="M 143 242 A 75 75 0 0 1 143 358" fill="none" stroke="white" stroke-width="3"/>
  <path d="M 757 242 A 75 75 0 0 0 757 358" fill="none" stroke="white" stroke-width="3"/>
  <path d="M 13 3 A 10 10 0 0 0 3 13" fill="none" stroke="white" stroke-width="3"/>
  <path d="M 887 3 A 10 10 0 0 1 897 13" fill="none" stroke="white" stroke-width="3"/>
  <path d="M 3 587 A 10 10 0 0 0 13 597" fill="none" stroke="white" stroke-width="3"/>
  <path d="M 897 587 A 10 10 0 0 1 887 597" fill="none" stroke="white" stroke-width="3"/>
  <rect x="0" y="205" width="5" height="190" fill="white"/>
  <rect x="895" y="205" width="5" height="190" fill="white"/>
</svg>
